<svg width="57" height="57" viewBox="0 0 57 57" fill="none" xmlns="http://www.w3.org/2000/svg">
  <circle cx="28.5" cy="28.5" r="28.5" fill="#F6F7FA"/>
  <path d="M28.4987 14.25C36.378 14.25 42.75 20.6308 42.75 28.5198C42.7447 30.0573 42.4967 31.5843 42.0154 33.0443H37.7683V21.0553L28.5 30.3365L19.2317 21.0553V33.0443H14.9833C14.5024 31.5842 14.2549 30.0572 14.25 28.5198C14.25 20.6308 20.6219 14.25 28.5 14.25H28.4987ZM26.3765 32.4234L28.5382 34.5525L30.6617 32.4247L34.6784 28.3642V35.9051H40.6646C39.3949 37.9963 37.6086 39.7247 35.4779 40.9236C33.3472 42.1225 30.944 42.7515 28.5 42.75C23.3629 42.75 18.8447 40.0052 16.3354 35.9051H22.3203V28.3642L26.3751 32.4247L26.3765 32.4234Z" fill="#FF6600"/>
</svg>
